<?xml version="1.0" encoding="UTF-8" standalone="no"?>
<svg width="28px" height="28px" viewBox="0 0 28 28" version="1.1" xmlns="http://www.w3.org/2000/svg" xmlns:xlink="http://www.w3.org/1999/xlink" xmlns:sketch="http://www.bohemiancoding.com/sketch/ns">
    <!-- Generator: Sketch 3.4 (15575) - http://www.bohemiancoding.com/sketch -->
    <title>Chrome</title>
    <desc>Created with Sketch.</desc>
    <defs></defs>
    <g id="Page-1" stroke="none" stroke-width="1" fill="none" fill-rule="evenodd" sketch:type="MSPage">
        <g id="Chrome" sketch:type="MSLayerGroup">
            <g id="Page-1" sketch:type="MSShapeGroup">
                <g id="Group">
                    <rect id="Rectangle-25-Copy-202-Copy" fill="#515251" x="10" y="0" width="8.0465116" height="28"></rect>
                    <rect id="Rectangle-25-Copy-205-Copy-3" fill="#515251" x="6" y="2" width="4.00000003" height="22"></rect>
                    <rect id="Rectangle-25-Copy-205-Copy-4" fill="#515251" x="18" y="2" width="4.00000003" height="24"></rect>
                    <rect id="Rectangle-25-Copy-212-Copy" fill="#515251" x="4" y="4" width="2" height="2"></rect>
                    <rect id="Rectangle-25-Copy-219-Copy" fill="#515251" x="2" y="6" width="24" height="16"></rect>
                    <rect id="Rectangle-25-Copy-212-Copy-2" fill="#515251" x="4" y="22" width="2" height="2"></rect>
                    <rect id="Rectangle-25-Copy-222-Copy" fill="#515251" x="0" y="10" width="28" height="8"></rect>
                    <rect id="Rectangle-25-Copy-212-Copy-3" fill="#515251" x="22" y="4" width="2" height="2"></rect>
                    <rect id="Rectangle-25-Copy-212-Copy-4" fill="#515251" x="22" y="22" width="2" height="2"></rect>
                    <g transform="translate(1.000000, 6.000000)">
                        <rect id="Rectangle-25-Copy-169" fill="#FFFFFF" x="11" y="12" width="4" height="2"></rect>
                        <rect id="Rectangle-25-Copy-173" fill="#FFFFFF" x="9" y="10" width="2" height="2"></rect>
                        <rect id="Rectangle-25-Copy-194" fill="#FFFFFF" x="9" y="4" width="2" height="2"></rect>
                        <rect id="Rectangle-25-Copy-195" fill="#FFFFFF" x="15" y="4" width="2" height="2"></rect>
                        <rect id="Rectangle-25-Copy-188" fill="#FFFFFF" x="15" y="10" width="2" height="2"></rect>
                        <rect id="Rectangle-25-Copy-190" fill="#FFFFFF" x="17" y="6" width="2" height="4"></rect>
                        <rect id="Rectangle-25-Copy-191" fill="#FFFFFF" x="7" y="6" width="2" height="4"></rect>
                        <rect id="Rectangle-25-Copy-198" fill="#FFFFFF" x="11" y="2" width="14" height="2"></rect>
                        <rect id="Rectangle-25-Copy-219" fill="#FFFFFF" x="0.95348837" y="0" width="2" height="2"></rect>
                        <rect id="Rectangle-25-Copy-205" fill="#FFFFFF" x="6.9534884" y="18" width="2" height="2"></rect>
                        <rect id="Rectangle-25-Copy-205-Copy" fill="#515251" x="5" y="18" width="2" height="2"></rect>
                        <rect id="Rectangle-644-Copy" fill="#FFFFFF" x="3" y="2" width="2" height="2"></rect>
                        <rect id="Rectangle-644-Copy-2" fill="#FFFFFF" x="5" y="4" width="2" height="2"></rect>
                        <rect id="Rectangle-644-Copy-4" fill="#FFFFFF" x="11" y="12" width="2" height="4"></rect>
                        <rect id="Rectangle-644-Copy-5" fill="#FFFFFF" x="9" y="16" width="2" height="2"></rect>
                    </g>
                </g>
            </g>
        </g>
    </g>
</svg>