<?xml version="1.0" encoding="UTF-8" standalone="no"?>
<svg width="34px" height="30px" viewBox="0 0 34 30" version="1.1" xmlns="http://www.w3.org/2000/svg" xmlns:xlink="http://www.w3.org/1999/xlink" xmlns:sketch="http://www.bohemiancoding.com/sketch/ns">
    <!-- Generator: Sketch 3.4 (15575) - http://www.bohemiancoding.com/sketch -->
    <title>Replay</title>
    <desc>Created with Sketch.</desc>
    <defs></defs>
    <g id="Page-1" stroke="none" stroke-width="1" fill="none" fill-rule="evenodd" sketch:type="MSPage">
        <g id="Replay" sketch:type="MSLayerGroup">
            <rect id="Rectangle-1" fill="#515251" sketch:type="MSShapeGroup" x="2" y="0" width="30" height="30"></rect>
            <rect id="Rectangle-1-Copy" fill="#515251" sketch:type="MSShapeGroup" x="1" y="1" width="32" height="28"></rect>
            <rect id="Rectangle-1-Copy-2" fill="#515251" sketch:type="MSShapeGroup" x="0" y="2" width="34" height="26"></rect>
            <g id="Group" transform="translate(7.000000, 5.000000)" fill="#FFFFFF" sketch:type="MSShapeGroup">
                <rect id="Rectangle-4" x="15" y="3" width="3" height="3"></rect>
                <rect id="Rectangle-4-Copy-8" x="2" y="3" width="5" height="3"></rect>
                <rect id="Rectangle-4-Copy-9" x="7" y="3" width="4" height="3"></rect>
                <rect id="Rectangle-4-Copy-10" x="7" y="3" width="4" height="3"></rect>
                <rect id="Rectangle-4-Copy-14" x="7" y="2" width="3" height="5"></rect>
                <rect id="Rectangle-4-Copy-11" x="7" y="1" width="2" height="7"></rect>
                <rect id="Rectangle-4-Copy-12" x="7" y="0" width="1" height="9"></rect>
                <rect id="Rectangle-4-Copy-2" x="17" y="5" width="3" height="10"></rect>
                <rect id="Rectangle-4-Copy-7" x="0" y="5" width="3" height="10"></rect>
                <rect id="Rectangle-4-Copy-3" x="2" y="14" width="16" height="3"></rect>
                <rect id="Rectangle-4-Copy" x="18" y="4" width="1" height="1"></rect>
                <rect id="Rectangle-4-Copy-4" x="18" y="15" width="1" height="1"></rect>
                <rect id="Rectangle-4-Copy-5" x="1" y="15" width="1" height="1"></rect>
                <rect id="Rectangle-4-Copy-6" x="1" y="4" width="1" height="1"></rect>
                <rect id="Rectangle-4-Copy-13" x="11" y="4" width="1" height="1"></rect>
            </g>
        </g>
    </g>
</svg>